<svg id="Layer_1" data-name="Layer 1" xmlns="http://www.w3.org/2000/svg" viewBox="0 0 75.41 160.5"><defs><style>.cls-1{fill:#93d9e4;stroke:#666;stroke-miterlimit:10;}</style></defs><title>awtr2</title><g id="Otter1"><path class="cls-1" d="M16.92,98.3l.63,26.82a20.67,20.67,0,0,0,3.17,10.62l12.89,18.5a2,2,0,0,0,3.68-1.65L30.7,126.47"/><path class="cls-1" d="M43.19,15.67s4.07-.72,5,.39-.77,3.88-.77,3.88"/><path class="cls-1" d="M9,20s-3.08-2-4.19.47,1.54,6.89,1.54,6.89"/><path class="cls-1" d="M11.57,76.21l2.21,17.18A13.64,13.64,0,0,0,16,99l3.81,5.59a12.16,12.16,0,0,1,2.06,5.88l.46,5.94a10.34,10.34,0,0,0,2.27,5.71l2.13,2.63a4.47,4.47,0,0,0,7.77-1.58l.49-1.71A9,9,0,0,0,35,116.8l-2.45-9.68-4.53-.35,6,.47a18.82,18.82,0,0,0,7.71-1l5.88-2.07-4.21,1.48L43,114.58a5.59,5.59,0,0,0,1.44,4L45.79,120a4.51,4.51,0,0,0,5.74.8l.85-.53a5.83,5.83,0,0,0,2.68-4.15l3.15-23A36.75,36.75,0,0,0,58.53,87L56,64.06l-1.61-6.24c.81,2.77,4.85,6.24,9.16,8.85,2.76,1.67,6-3.66,5.63-6.52C68.89,58,48.27,43.82,48.27,43.82l-2-.51s1.24-.8,2.88-5.61c3.76-10.95-.8-28.15-23.68-26.26-12.67,1-17.94,8.08-18.9,15.49A21.31,21.31,0,0,0,9.48,40.62a10.32,10.32,0,0,0,7.33,4.58l-1.69.12S2.63,59.9,6.56,69,20.21,83.71,26.77,80c2-1.23,4.9-5.43,2.84-7.43s-15.7-4.05-14.77-10"/><path class="cls-1" d="M18,31.6l3.74-2.41a13.07,13.07,0,0,1,12.52-.89l3.34,1.53"/><line class="cls-1" y1="40.05" x2="17.87" y2="33.88"/><line class="cls-1" x1="17.7" y1="36.08" x2="1.86" y2="44.04"/><path class="cls-1" d="M36.31,32.11l7.13-2.7a8.75,8.75,0,0,1,2-.5l8.77-1.12"/><path class="cls-1" d="M37.32,33.94l4.82-2.32a11.79,11.79,0,0,1,5.46-1.16l6.84.21"/><circle class="cls-1" cx="27.33" cy="31.91" r="1.75" transform="translate(-6.61 56.67) rotate(-85.54)"/><path class="cls-1" d="M28.08,33.72l.15.58a3.29,3.29,0,0,0,2.51,2.4l1.19.25a5.37,5.37,0,0,0,3.5-.45L36.51,36"/><path class="cls-1" d="M19.22,37l2.09.72a5.71,5.71,0,0,0,4.48-.33l3-1.53"/><path class="cls-1" d="M25.05,38.58l1.09.83a3.49,3.49,0,0,0,4.36-.11L32,38"/><line class="cls-1" x1="56" y1="60.59" x2="54.39" y2="57.82"/></g></svg>