<svg id="Layer_1" data-name="Layer 1" xmlns="http://www.w3.org/2000/svg" viewBox="0 0 76.23 77.5"><defs><style>.cls-1{fill:#9f9e89;}.cls-1,.cls-2{stroke:#666;stroke-miterlimit:10;}.cls-2{fill:none;}</style></defs><title>awtrHeadOnlyGrey</title><g id="Otter1"><path class="cls-1" d="M51.55,22.33s4.07-.72,5,.39-.77,3.88-.77,3.88"/><path class="cls-1" d="M17.34,26.68s-3.08-2-4.19.47S14.68,34,14.68,34"/><path class="cls-1" d="M64.46,56.16l-7.83-5.68-2-.51s1.24-.8,2.88-5.61c3.76-10.95-.8-28.15-23.68-26.26-12.67,1-17.94,8.08-18.9,15.49a21.31,21.31,0,0,0,2.92,13.69,10.32,10.32,0,0,0,7.33,4.58L23.48,52,16.2,63.28C28.44,75.49,53.85,74.33,64.46,56.16Z"/><path class="cls-1" d="M26.4,38.26l3.74-2.41A13.07,13.07,0,0,1,42.66,35L46,36.48"/><line class="cls-1" x1="8.36" y1="46.71" x2="26.23" y2="40.54"/><line class="cls-1" x1="26.05" y1="42.74" x2="10.22" y2="50.7"/><path class="cls-1" d="M44.67,38.77l7.13-2.7a8.75,8.75,0,0,1,2-.5l8.77-1.12"/><path class="cls-1" d="M45.68,40.6l4.82-2.32A11.79,11.79,0,0,1,56,37.12l6.84.21"/><circle class="cls-1" cx="35.68" cy="38.57" r="1.75" transform="translate(-5.54 71.14) rotate(-85.54)"/><path class="cls-1" d="M36.44,40.38l.15.58a3.29,3.29,0,0,0,2.51,2.4l1.19.25a5.37,5.37,0,0,0,3.5-.45l1.08-.54"/><path class="cls-1" d="M27.57,43.61l2.09.72A5.71,5.71,0,0,0,34.14,44l3-1.53"/><path class="cls-1" d="M33.41,45.24l1.09.83A3.49,3.49,0,0,0,38.86,46l1.55-1.3"/></g><circle class="cls-2" cx="37.43" cy="39.25" r="32.11"/></svg>