<svg id="Layer_1" data-name="Layer 1" xmlns="http://www.w3.org/2000/svg" viewBox="0 0 70.65 160.5"><defs><style>.cls-1{fill:#93d9e4;stroke:#666;stroke-miterlimit:10;}</style></defs><title>awtr1</title><g id="Otter1"><g id="Otter1-2" data-name="Otter1"><path class="cls-1" d="M53.32,93.39,50.14,119a18.9,18.9,0,0,1-2.93,9.64l-7.78,13.57a1.84,1.84,0,0,1-3.32-1.53l3.12-20.55"/><path class="cls-1" d="M28.67,19.16s-3.67-.68-4.51.32.67,3.54.67,3.54"/><path class="cls-1" d="M59.56,23.38s2.79-1.83,3.79.46-1.44,6.26-1.44,6.26"/><path class="cls-1" d="M56.86,74.51s.59,10.26-.62,14.25-3.5,6.44-4.54,8l-2.44,3.58a11.11,11.11,0,0,0-1.9,5.34L46.91,111a9.45,9.45,0,0,1-2.09,5.18l-1.94,2.37a4,4,0,0,1-7-1.5l-.43-1.56a8.27,8.27,0,0,1,0-4.24l2.28-8.8,4.09-.29-5.43.38a16.89,16.89,0,0,1-7-1l-5.3-1.93,3.8,1.38.31,8.14a5.11,5.11,0,0,1-1.33,3.61l-1.2,1.31a4.05,4.05,0,0,1-5.19.68l-.76-.49a5.32,5.32,0,0,1-2.39-3.8l-2.7-21A33.72,33.72,0,0,1,14.36,84l2.43-20.9,1.5-5.67c-.75,2.52-4.43,5.65-8.34,8-2.51,1.5-5.41-3.37-5-6,.27-2,19-14.72,19-14.72l1.81-.45s-1.11-.74-2.57-5.13c-3.32-10,.9-25.62,21.57-23.73,11.44,1,16.16,7.49,17,14.24A19.51,19.51,0,0,1,59,42.13a9.3,9.3,0,0,1-6.65,4.12l1.53.13S65,59.73,61.43,68,49,81.28,43.1,77.82c-1.78-1.14-4.39-5-2.52-6.78S54.8,67.47,54,62"/><path class="cls-1" d="M51.29,33.85l-3.36-2.22a11.74,11.74,0,0,0-11.31-.91l-3,1.37"/><line class="cls-1" x1="67.55" y1="41.68" x2="51.44" y2="35.93"/><line class="cls-1" x1="51.58" y1="37.93" x2="65.84" y2="45.3"/><path class="cls-1" d="M34.79,34.18l-6.43-2.51a7.86,7.86,0,0,0-1.8-.47l-7.92-1.08"/><path class="cls-1" d="M33.86,35.83l-4.34-2.14A10.59,10.59,0,0,0,24.6,32.6l-6.18.14"/><ellipse class="cls-1" cx="42.91" cy="34.06" rx="1.58" ry="1.59" transform="translate(-2.29 3.1) rotate(-4.03)"/><path class="cls-1" d="M42.21,35.71l-.14.53a3,3,0,0,1-2.28,2.16l-1.08.22a4.82,4.82,0,0,1-3.16-.43l-1-.5"/><path class="cls-1" d="M50.2,38.72l-1.89.64a5.12,5.12,0,0,1-4-.33L41.6,37.61"/><path class="cls-1" d="M44.92,40.15l-1,.75A3.14,3.14,0,0,1,40,40.77l-1.39-1.2"/><line class="cls-1" x1="16.81" y1="59.96" x2="18.29" y2="57.46"/></g></g></svg>