<svg id="Layer_1" data-name="Layer 1" xmlns="http://www.w3.org/2000/svg" viewBox="0 0 117.5 113.5"><defs><style>.cls-1{fill:#fff;}.cls-1,.cls-2{stroke:#666;stroke-miterlimit:10;}.cls-2{fill:none;}</style></defs><title>awtrGroupIcon</title><g id="Otter1"><path class="cls-1" d="M43.54,24.55s-3.91-.16-4.6,1.06,1.31,3.73,1.31,3.73"/><path class="cls-1" d="M76.15,24.2s2.56-2.43,4-.11-.38,7-.38,7"/><path class="cls-1" d="M82.33,80.06l.56,17.28a13.85,13.85,0,0,1-.81,5.87L81.21,105c-10.88,6-27.84,6.22-38.36,2.59l-1.49-4.47a39,39,0,0,1-1.23-6L39,74.1l.55-6.38c-.33,2.85-3.58,6.83-7.2,10-2.33,2-6.17-2.8-6.25-5.67,0-1.27,5.8-7.55,10.64-12.55,3.44-3.54,6.38-6.44,6.38-6.44l1.79-.77s-1.28-.63-3.55-5.15C36.16,36.82,37.78,19.21,59.44,18c12-.69,18,5.55,20,12.73a22.23,22.23,0,0,1-.63,13.92,9.51,9.51,0,0,1-6.15,5.53l1.6-.11S88.18,62.73,85.9,72.24,75.41,88.65,68.71,85.84c-2-.95-5.4-4.7-3.78-7S79,72.75,77.18,67"/><path class="cls-1" d="M69.46,36.87,65.59,35a11.76,11.76,0,0,0-11.83.82l-2.88,2"/><line class="cls-1" x1="87.6" y1="42.77" x2="69.97" y2="39.1"/><line class="cls-1" x1="70.47" y1="41.25" x2="86.47" y2="46.96"/><path class="cls-1" d="M52.48,39.86l-7.07-1.7a7.93,7.93,0,0,0-1.94-.22L35.11,38"/><path class="cls-1" d="M51.81,41.8,47,40.17a10.66,10.66,0,0,0-5.27-.4L35.33,40.9"/><ellipse class="cls-1" cx="60.84" cy="38.44" rx="1.65" ry="1.75" transform="translate(-7.09 14.68) rotate(-13.01)"/><path class="cls-1" d="M60.41,40.33l-.05.59a3.15,3.15,0,0,1-2,2.71L57.31,44a4.83,4.83,0,0,1-3.34,0l-1.09-.38"/><path class="cls-1" d="M69.18,42.32l-1.84,1a5.12,5.12,0,0,1-4.23.29l-3-1.11"/><path class="cls-1" d="M64,44.72l-.89,1a3.16,3.16,0,0,1-4.09.49l-1.64-1.08"/><line class="cls-1" x1="38.45" y1="70.67" x2="39.53" y2="67.72"/></g><path class="cls-1" d="M63.24,109.8l-1.07-9.74-1.61-6.24c.81,2.77,4.85,6.24,9.16,8.85,2.76,1.67,6-3.66,5.63-6.52-.17-1.27-7.29-6.64-13.18-10.89-4.18-3-7.73-5.45-7.73-5.45l-2-.51s1.24-.8,2.88-5.61c3.76-10.95-.8-28.15-23.68-26.26-12.67,1-17.94,8.08-18.9,15.49a21.31,21.31,0,0,0,2.92,13.69A10.32,10.32,0,0,0,23,81.21l-1.69.12A55.92,55.92,0,0,0,16,88.85c8.83,10,22.87,22.74,47.19,21"/><g id="Otter1-2" data-name="Otter1"><path class="cls-2" d="M49.36,51.67s4.07-.72,5,.39-.77,3.88-.77,3.88"/><path class="cls-2" d="M15.15,56s-3.08-2-4.19.47,1.54,6.89,1.54,6.89"/><path class="cls-2" d="M24.22,67.6,28,65.19a13.07,13.07,0,0,1,12.52-.89l3.34,1.53"/><line class="cls-2" x1="6.17" y1="76.05" x2="24.04" y2="69.88"/><line class="cls-2" x1="23.87" y1="72.08" x2="8.03" y2="80.04"/><path class="cls-2" d="M42.48,68.11l7.13-2.7a8.75,8.75,0,0,1,2-.5l8.77-1.12"/><path class="cls-2" d="M43.49,69.94l4.82-2.32a11.79,11.79,0,0,1,5.46-1.16l6.84.21"/><circle class="cls-2" cx="33.5" cy="67.91" r="1.75" transform="translate(-36.81 96.02) rotate(-85.54)"/><path class="cls-2" d="M34.25,69.72l.15.58a3.29,3.29,0,0,0,2.51,2.4l1.19.25a5.37,5.37,0,0,0,3.5-.45L42.68,72"/><path class="cls-2" d="M25.39,73l2.09.72a5.71,5.71,0,0,0,4.48-.33l3-1.53"/><path class="cls-2" d="M31.22,74.58l1.09.83a3.49,3.49,0,0,0,4.36-.11L38.22,74"/><line class="cls-2" x1="62.17" y1="96.59" x2="60.56" y2="93.82"/></g><circle class="cls-2" cx="58.34" cy="57.11" r="52.92"/><g id="Otter1-3" data-name="Otter1"><path class="cls-1" d="M69.52,56.8s-3.84-.73-4.7.37.74,3.88.74,3.88"/><path class="cls-1" d="M101.83,61.3s2.9-2,4,.49-1.42,6.88-1.42,6.88"/><path class="cls-1" d="M99.15,90.8l-3-4.23-1.6-.13a9.51,9.51,0,0,0,6.9-4.55,22.23,22.23,0,0,0,2.69-13.67c-.94-7.41-6-14.46-17.91-15.57C64.63,50.66,60.4,67.84,64,78.8c1.58,4.81,2.75,5.62,2.75,5.62l-1.89.5s-3.34,2.43-7.27,5.42c-5.54,4.22-12.24,9.56-12.39,10.83-.35,2.86,2.74,8.2,5.34,6.54,4.06-2.59,7.86-6,8.61-8.81l-1.5,6.23-.49,4.9C78.5,109.8,89.13,101.65,99.15,90.8Z"/><path class="cls-1" d="M93.32,72.83l-3.54-2.42A11.76,11.76,0,0,0,78,69.46L74.83,71"/><line class="cls-1" x1="110.39" y1="81.36" x2="93.5" y2="75.11"/><line class="cls-1" x1="93.67" y1="77.32" x2="108.65" y2="85.34"/><path class="cls-1" d="M76.09,73.27l-6.74-2.73A7.93,7.93,0,0,0,67.47,70l-8.28-1.16"/><path class="cls-1" d="M75.15,75.09l-4.56-2.34a10.66,10.66,0,0,0-5.16-1.18L59,71.74"/><ellipse class="cls-1" cx="84.57" cy="73.1" rx="1.65" ry="1.75" transform="translate(-5.43 6.8) rotate(-4.46)"/><path class="cls-1" d="M83.87,74.91l-.14.58a3.15,3.15,0,0,1-2.36,2.38l-1.12.25a4.83,4.83,0,0,1-3.31-.46l-1-.54"/><path class="cls-1" d="M92.24,78.18l-2,.71a5.12,5.12,0,0,1-4.23-.35L83.25,77"/><path class="cls-1" d="M86.74,79.78l-1,.82a3.16,3.16,0,0,1-4.11-.13l-1.47-1.31"/><line class="cls-1" x1="57.64" y1="101.65" x2="59.15" y2="98.89"/></g></svg>