<?xml version="1.0" encoding="utf-8"?>
<!-- Generator: Adobe Illustrator 20.1.0, SVG Export Plug-In . SVG Version: 6.00 Build 0)  -->
<svg version="1.1" id="Layer_1" xmlns="http://www.w3.org/2000/svg" xmlns:xlink="http://www.w3.org/1999/xlink" x="0px" y="0px"
	 viewBox="0 0 16 16" style="enable-background:new 0 0 16 16;" xml:space="preserve">
<style type="text/css">
	.st0{fill:#FFFFFF;}
</style>
<title>mark-github</title>
<desc>Created with Sketch.</desc>
<g id="Octicons">
	<g id="mark-github">
		<path id="Shape" class="st0" d="M8,0C3.6,0,0,3.6,0,8c0,3.5,2.3,6.5,5.5,7.6C5.9,15.7,6,15.4,6,15.2c0-0.2,0-0.8,0-1.5
			c-2,0.4-2.5-0.5-2.7-0.9c-0.1-0.2-0.5-0.9-0.8-1.1c-0.3-0.1-0.7-0.5,0-0.5c0.6,0,1.1,0.6,1.2,0.8c0.7,1.2,1.9,0.9,2.3,0.7
			c0.1-0.5,0.3-0.9,0.5-1.1c-1.8-0.2-3.6-0.9-3.6-3.9c0-0.9,0.3-1.6,0.8-2.2c-0.1-0.2-0.4-1,0.1-2.1c0,0,0.7-0.2,2.2,0.8
			C6.7,4,7.3,3.9,8,3.9c0.7,0,1.4,0.1,2,0.3c1.5-1,2.2-0.8,2.2-0.8c0.4,1.1,0.2,1.9,0.1,2.1c0.5,0.6,0.8,1.3,0.8,2.2
			c0,3.1-1.9,3.8-3.6,3.9C9.8,11.8,10,12.3,10,13c0,1.1,0,1.9,0,2.2c0,0.2,0.1,0.5,0.6,0.4C13.7,14.5,16,11.5,16,8
			C16,3.6,12.4,0,8,0L8,0z"/>
	</g>
</g>
</svg>
