<svg id="Layer_1" data-name="Layer 1" xmlns="http://www.w3.org/2000/svg" viewBox="0 0 77.9 160.5"><defs><style>.cls-1{fill:none;stroke:#fff;stroke-miterlimit:10;}</style></defs><title>otterLeft</title><g id="Otter1"><path class="cls-1" d="M20.91,98.3l.63,26.82a20.67,20.67,0,0,0,3.17,10.62l12.89,18.5a2,2,0,0,0,3.68-1.65h0L34.7,126.47"/><path class="cls-1" d="M47.19,15.67s4.07-.72,5,.39-.77,3.88-.77,3.88"/><path class="cls-1" d="M13,20s-3.08-2-4.19.47,1.54,6.89,1.54,6.89"/><path class="cls-1" d="M15.56,76.21l2.21,17.18A13.64,13.64,0,0,0,20,99l3.81,5.59a12.16,12.16,0,0,1,2.06,5.88l.46,5.94a10.34,10.34,0,0,0,2.27,5.71l2.13,2.63a4.47,4.47,0,0,0,7.77-1.58l.49-1.71a9,9,0,0,0,0-4.66l-2.45-9.68L32,106.77l6,.47a18.82,18.82,0,0,0,7.71-1l5.88-2.07-4.21,1.48-.4,8.93a5.59,5.59,0,0,0,1.44,4L49.79,120a4.51,4.51,0,0,0,5.74.8l.85-.53a5.83,5.83,0,0,0,2.68-4.15l3.15-23A36.75,36.75,0,0,0,62.52,87L60,64.06l-1.61-6.24c.81,2.77,4.85,6.24,9.16,8.85,2.76,1.67,6-3.66,5.63-6.52C72.89,58,52.27,43.82,52.27,43.82l-2-.51s1.24-.8,2.88-5.61c3.76-11-.8-28.15-23.68-26.26-12.67,1-17.94,8.08-18.9,15.49a21.31,21.31,0,0,0,2.92,13.69,10.32,10.32,0,0,0,7.33,4.58l-1.69.12S6.63,59.9,10.56,69,24.2,83.71,30.77,80c2-1.23,4.9-5.43,2.84-7.43s-15.7-4.05-14.77-10"/><path class="cls-1" d="M22,31.6l3.74-2.41A13.07,13.07,0,0,1,38.3,28.3l3.34,1.53"/><line class="cls-1" x1="4" y1="40.05" x2="21.86" y2="33.88"/><line class="cls-1" x1="21.69" y1="36.08" x2="5.86" y2="44.04"/><path class="cls-1" d="M40.31,32.11l7.13-2.7a8.75,8.75,0,0,1,2-.5l8.77-1.12"/><path class="cls-1" d="M41.32,33.94l4.82-2.32a11.79,11.79,0,0,1,5.46-1.16l6.84.21"/><circle class="cls-1" cx="31.33" cy="31.91" r="1.75" transform="translate(-2.92 60.66) rotate(-85.54)"/><path class="cls-1" d="M32.08,33.72l.15.58a3.29,3.29,0,0,0,2.51,2.4l1.19.25a5.37,5.37,0,0,0,3.5-.45l1.08-.5"/><path class="cls-1" d="M23.21,37l2.09.72a5.71,5.71,0,0,0,4.48-.33l3-1.53"/><path class="cls-1" d="M29,38.58l1.09.83a3.49,3.49,0,0,0,4.36-.11L36,38"/><line class="cls-1" x1="60" y1="60.59" x2="58.38" y2="57.82"/></g></svg>