<svg id="Layer_1" data-name="Layer 1" xmlns="http://www.w3.org/2000/svg" viewBox="0 0 76.95 160.5"><defs><style>.cls-1{fill:none;stroke:#fff;stroke-miterlimit:10;}</style></defs><title>otterRight</title><g id="Otter1"><g id="Otter1-2"><path class="cls-1" d="M55.77,93.39,52.6,119a18.9,18.9,0,0,1-2.93,9.64l-7.78,13.57a1.84,1.84,0,0,1-3.32-1.53l3.12-20.55"/><path class="cls-1" d="M31.13,19.16s-3.67-.68-4.51.32.67,3.54.67,3.54"/><path class="cls-1" d="M62.05,23.38s2.79-1.83,3.79.46S64.4,30.1,64.4,30.1"/><path class="cls-1" d="M59.32,74.51s.59,10.26-.62,14.25-3.5,6.44-4.54,8l-2.44,3.58a11.11,11.11,0,0,0-1.9,5.34l-.45,5.41a9.45,9.45,0,0,1-2.09,5.18l-1.94,2.37a4,4,0,0,1-7-1.5l-.43-1.56a8.27,8.27,0,0,1,0-4.24l2.28-8.8,4.09-.29-5.43.38a16.89,16.89,0,0,1-7-1l-5.3-1.93,3.8,1.38.31,8.14a5.11,5.11,0,0,1-1.33,3.61l-1.2,1.31a4.05,4.05,0,0,1-5.19.68l-.76-.49a5.32,5.32,0,0,1-2.39-3.8l-2.7-21A33.72,33.72,0,0,1,16.82,84l2.43-20.9,1.5-5.67c-.75,2.52-4.43,5.65-8.34,8-2.51,1.5-5.41-3.37-5-6,.27-2,19-14.72,19-14.72l1.81-.45s-1.11-.74-2.57-5.13c-3.32-10,.9-25.62,21.57-23.73,11.44,1,16.16,7.49,17,14.24a19.51,19.51,0,0,1-2.73,12.44,9.3,9.3,0,0,1-6.65,4.12l1.53.13S67.56,59.69,64,67.93,51.53,81.24,45.62,77.78c-1.78-1.14-4.39-5-2.52-6.78s14.21-3.57,13.41-9"/><path class="cls-1" d="M53.75,33.85l-3.36-2.22a11.74,11.74,0,0,0-11.34-.91l-3,1.37"/><line class="cls-1" x1="70" y1="41.68" x2="53.9" y2="35.93"/><line class="cls-1" x1="54.04" y1="37.93" x2="68.3" y2="45.3"/><path class="cls-1" d="M37.25,34.18l-6.43-2.51A7.86,7.86,0,0,0,29,31.2L21.1,30.12"/><path class="cls-1" d="M36.32,35.83,32,33.69a10.59,10.59,0,0,0-4.93-1.09l-6.18.14"/><ellipse class="cls-1" cx="45.37" cy="34.05" rx="1.58" ry="1.59" transform="translate(-2.28 3.27) rotate(-4.03)"/><path class="cls-1" d="M44.67,35.71l-.14.53a3,3,0,0,1-2.28,2.16l-1.08.22A4.82,4.82,0,0,1,38,38.19l-1-.5"/><path class="cls-1" d="M52.66,38.72l-1.89.64a5.12,5.12,0,0,1-4-.33l-2.72-1.42"/><path class="cls-1" d="M47.38,40.15l-1,.75a3.14,3.14,0,0,1-3.94-.13l-1.39-1.2"/><line class="cls-1" x1="19.27" y1="59.96" x2="20.75" y2="57.46"/></g></g></svg>