<?xml version="1.0" encoding="utf-8"?>
<!-- Generator: Adobe Illustrator 20.1.0, SVG Export Plug-In . SVG Version: 6.00 Build 0)  -->
<svg version="1.1" id="Layer_1" xmlns="http://www.w3.org/2000/svg" xmlns:xlink="http://www.w3.org/1999/xlink" x="0px" y="0px"
	 viewBox="0 0 16 16" style="enable-background:new 0 0 16 16;" xml:space="preserve">
<style type="text/css">
	.st0{fill:#FFFFFF;}
</style>
<title>smiley</title>
<desc>Created with Sketch.</desc>
<g id="Octicons">
	<g id="smiley">
		<path id="Shape" class="st0" d="M8,0C3.6,0,0,3.6,0,8s3.6,8,8,8s8-3.6,8-8S12.4,0,8,0L8,0z M12.8,12.8c-0.6,0.6-1.4,1.1-2.2,1.4
			c-0.8,0.4-1.7,0.5-2.6,0.5s-1.8-0.2-2.6-0.5c-0.8-0.3-1.6-0.8-2.2-1.4c-0.6-0.6-1.1-1.4-1.5-2.2C1.4,9.8,1.2,8.9,1.2,8
			s0.2-1.8,0.5-2.6c0.3-0.8,0.8-1.6,1.5-2.2s1.4-1.1,2.2-1.5C6.2,1.4,7.1,1.2,8,1.2s1.8,0.2,2.6,0.5c0.8,0.3,1.5,0.8,2.2,1.5
			c0.6,0.6,1.1,1.4,1.4,2.2c0.4,0.8,0.5,1.7,0.5,2.6s-0.2,1.8-0.5,2.6C13.9,11.4,13.4,12.2,12.8,12.8L12.8,12.8z M4,6.8V6.2
			C4,5.6,4.5,5,5.2,5h0.6C6.4,5,7,5.6,7,6.2v0.6C7,7.5,6.4,8,5.8,8H5.2C4.5,8,4,7.5,4,6.8L4,6.8z M9,6.8V6.2C9,5.6,9.5,5,10.2,5h0.6
			C11.4,5,12,5.6,12,6.2v0.6C12,7.5,11.4,8,10.8,8h-0.6C9.5,8,9,7.5,9,6.8L9,6.8z M13,10c-0.7,1.9-2.9,3-5,3s-4.3-1.1-5-3
			C2.9,9.6,3.2,9,3.7,9h8.6C12.7,9,13.1,9.6,13,10L13,10z"/>
	</g>
</g>
</svg>
