<?xml version="1.0" encoding="utf-8"?>
<!-- Generator: Adobe Illustrator 20.1.0, SVG Export Plug-In . SVG Version: 6.00 Build 0)  -->
<svg version="1.1" id="Layer_1" xmlns="http://www.w3.org/2000/svg" xmlns:xlink="http://www.w3.org/1999/xlink" x="0px" y="0px"
	 viewBox="0 0 12 16" style="enable-background:new 0 0 12 16;" xml:space="preserve">
<style type="text/css">
	.st0{fill:#FFFFFF;}
</style>
<title>three-bars</title>
<desc>Created with Sketch.</desc>
<g id="Octicons">
	<g id="three-bars">
		<path id="Shape" class="st0" d="M11.4,9H0.6C0,9,0,8.6,0,8s0-1,0.6-1h10.8C12,7,12,7.4,12,8S12,9,11.4,9L11.4,9z M11.4,5H0.6
			C0,5,0,4.6,0,4s0-1,0.6-1h10.8C12,3,12,3.4,12,4S12,5,11.4,5L11.4,5z M0.6,11h10.8c0.6,0,0.6,0.4,0.6,1s0,1-0.6,1H0.6
			C0,13,0,12.6,0,12S0,11,0.6,11L0.6,11z"/>
	</g>
</g>
</svg>
